<svg xmlns="http://www.w3.org/2000/svg" viewBox="0 0 32 32" enable-background="new 0 0 32 32"><style type="text/css">.st0{fill:#FFFFFF;}</style><path class="st0" d="M14 0h-2c-1.1 0-2 .9-2 2v28c0 1.1.9 2 2 2h2c1.1 0 2-.9 2-2v-28c0-1.1-.9-2-2-2zm0 29c0 .6-.4 1-1 1s-1-.4-1-1v-26c0-.6.4-1 1-1s1 .4 1 1v26zm-10-20h-2c-1.1 0-2 .9-2 2v19c0 1.1.9 2 2 2h2c1.1 0 2-.9 2-2v-19c0-1.1-.9-2-2-2zm0 20c0 .6-.4 1-1 1s-1-.4-1-1v-17c0-.6.4-1 1-1s1 .4 1 1v17zm20-13h-2c-1.1 0-2 .9-2 2v12c0 1.1.9 2 2 2h2c1.1 0 2-.9 2-2v-12c0-1.1-.9-2-2-2zm0 13c0 .6-.4 1-1 1s-1-.4-1-1v-10c0-.6.4-1 1-1s1 .4 1 1v10z" id="_x35__10_"/></svg>