<svg xmlns="http://www.w3.org/2000/svg" viewBox="0 0 32 32" enable-background="new 0 0 32 32"><path fill="#EEEEEE" d="M17.7 25.7c0-.3 0-.5-.1-.8l-.2-.7c-.1-.2-.2-.4-.3-.7-.2-.2-.3-.4-.4-.6l-.5-.6-.5-.5c-.1-.1-.3-.3-.6-.5s-.5-.4-.6-.4l-.6-.4c-.3-.2-.5-.4-.6-.4h-1c-.7 0-1.4 0-2 .1-.7.1-1.4.2-2.1.5-.7.2-1.3.5-1.9.9s-1 .8-1.3 1.4c-.3.6-.5 1.3-.5 2.1 0 .9.2 1.7.7 2.3.5.7 1.1 1.2 1.8 1.6s1.5.7 2.3.9 1.6.3 2.4.3c.8 0 1.5-.1 2.2-.2.7-.2 1.3-.4 1.9-.8.6-.3 1.1-.8 1.4-1.4.3-.6.5-1.3.5-2.1zm-2.3-16.6c0-.8-.1-1.6-.3-2.5-.2-.9-.5-1.7-.9-2.5s-.9-1.5-1.6-2c-.7-.5-1.5-.8-2.3-.8-1.2 0-2.1.4-2.8 1.3-.7.9-1 1.9-1 3.2 0 .6.1 1.2.2 1.9s.4 1.3.7 2c.3.7.7 1.3 1.1 1.8.4.5.9 1 1.5 1.3.6.3 1.2.5 1.9.5 1.2 0 2.1-.4 2.7-1.2.5-.7.8-1.7.8-3zm-2.5-9.1h8.4l-2.6 1.5h-2.6c.9.6 1.6 1.4 2.1 2.4s.8 2.1.8 3.2c0 .9-.1 1.8-.4 2.5-.3.7-.7 1.3-1.1 1.8-.4.4-.8.9-1.3 1.2-.4.4-.8.8-1.1 1.2-.3.4-.4.8-.4 1.3 0 .3.1.7.3 1 .2.3.5.6.8.9.3.3.7.6 1.1.9.4.3.8.7 1.2 1.1.4.4.8.8 1.1 1.3.3.5.6 1 .8 1.6.2.6.3 1.3.3 2 0 2.1-.9 3.9-2.7 5.4-1.9 1.7-4.6 2.5-8.1 2.5-.8 0-1.5-.1-2.3-.2-.8-.1-1.6-.3-2.3-.6-.8-.3-1.5-.7-2.1-1.1-.6-.4-1.1-1-1.5-1.7-.3-.6-.5-1.3-.5-2.2 0-.8.2-1.6.7-2.6.4-.8 1-1.5 1.8-2.1.8-.6 1.8-1.1 2.8-1.4 1-.3 2-.5 3-.7.9-.1 1.9-.2 2.9-.3-.8-1.1-1.2-2-1.2-2.9v-.5l.1-.4c0-.1.1-.2.2-.4s.1-.3.1-.4c-.5.1-1 .1-1.3.1-1.9 0-3.5-.6-4.9-1.9-1.4-1.3-2-2.8-2-4.7 0-1.8.6-3.4 1.8-4.8 1.2-1.3 2.7-2.2 4.5-2.6 1.2-.3 2.4-.4 3.6-.4zm19.9 4.9v2.5h-4.9v4.9h-2.5v-4.9h-4.9v-2.5h4.9v-4.9h2.5v4.9h4.9z"/></svg>
